<?xml version="1.0" encoding="utf-8"?>
<!-- Generator: Adobe Illustrator 26.0.2, SVG Export Plug-In . SVG Version: 6.00 Build 0)  -->
<svg version="1.1" id="Layer_1" xmlns="http://www.w3.org/2000/svg" xmlns:xlink="http://www.w3.org/1999/xlink" x="0px" y="0px"
	 width="1200px" height="287.7381px" viewBox="0 0 1200 287.7381" style="enable-background:new 0 0 1200 287.7381;"
	 xml:space="preserve">
<style type="text/css">
	.st0{fill:#5BC682;}
	.st1{fill:#FFFFFF;}
</style>
<g>
	<g>
		<path class="st0" d="M177.772,93.2473V116.92c0,21.4762-17.4099,38.886-38.886,38.886l0,0c-2.5576,0-5.0556-0.2541-7.4753-0.7257
			v15.2138h38.886c21.4762,0,38.886-17.4098,38.886-38.886l0,0C209.1828,112.4895,195.6706,96.7338,177.772,93.2473z"/>
		<circle class="st0" cx="144.0118" cy="193.9921" r="15.712"/>
		<path class="st1" d="M138.886,155.806c21.4762,0,38.886-17.4099,38.886-38.886V93.2473V78.0339H100v38.886
			c0,18.9182,13.5125,34.6742,31.4107,38.1603C133.8305,155.5519,136.3284,155.806,138.886,155.806L138.886,155.806z"/>
	</g>
	<path class="st1" d="M255.9611,93.2473v44.6868c0,16.144,6.5672,24.2153,19.703,24.2153c13.2795,0,19.9215-8.0713,19.9215-24.2153
		V93.2473h9.5753v44.1368c0,11.0069-2.5143,19.3543-7.5385,25.0399c-5.0272,5.6879-12.3471,8.5307-21.9584,8.5307
		c-9.6143,0-16.8954-2.8428-21.8492-8.5307c-4.9523-5.6857-7.4292-14.0331-7.4292-25.0399V93.2473H255.9611z"/>
	<path class="st1" d="M357.1485,119.6634c4.1441,4.1105,6.2184,10.5661,6.2184,19.3715v31.2591h-9.0246v-30.7084
		c0-5.7957-1.3051-10.2174-3.9077-13.263c-2.6056-3.0441-6.3666-4.5684-11.2815-4.5684c-5.2845,0-9.4302,1.8356-12.4384,5.5038
		c-3.0097,3.6697-4.5123,8.6587-4.5123,14.9692v28.0668h-9.0261v-56.1345h7.8153l1.2108,7.5946
		c4.2549-5.5031,10.418-8.2546,18.4908-8.2546C347.5177,113.4996,353.0013,115.5545,357.1485,119.6634z"/>
	<path class="st1" d="M423.0036,93.2473v77.0467h-7.8138l-1.2108-9.0254c-4.6964,6.4579-11.1169,9.6861-19.2615,9.6861
		c-5.2112,0-9.8522-1.1374-13.9245-3.4123c-4.0723-2.2734-7.2646-5.5757-9.5754-9.9061c-2.3108-4.329-3.4677-9.4661-3.4677-15.4092
		c0-5.6497,1.1569-10.6387,3.4677-14.9692c2.3108-4.329,5.521-7.7046,9.6307-10.1261c4.1082-2.4215,8.7313-3.6323,13.8692-3.6323
		c4.5482,0,8.4365,0.8254,11.6662,2.4762c3.2282,1.6515,5.7605,3.9077,7.5953,6.7692V93.2473H423.0036z M405.2283,160.3333
		c2.8241-1.7234,5.0077-4.1449,6.5492-7.2646c1.54-3.1182,2.3108-6.6592,2.3108-10.6215c0-4.0349-0.7708-7.65-2.3108-10.8415
		c-1.5415-3.1923-3.7251-5.6684-6.5492-7.43c-2.8256-1.7608-6.0359-2.6415-9.6308-2.6415c-5.5779,0-10.0707,1.9261-13.483,5.7785
		s-5.1184,8.8248-5.1184,14.9146c0,6.0912,1.7061,11.0615,5.1184,14.9138c3.4123,3.8523,7.9052,5.7784,13.483,5.7784
		C399.1924,162.9195,402.4027,162.0582,405.2283,160.3333z"/>
	<path class="st1" d="M431.5143,127.148c2.2375-4.329,5.3744-7.6859,9.4108-10.0715c4.0349-2.3834,8.6579-3.5769,13.8692-3.5769
		c5.1349,0,9.6861,1.0648,13.6477,3.1915c3.963,2.1297,7.0805,5.2112,9.3568,9.2461c2.2734,4.0364,3.4841,8.7694,3.6323,14.1984
		c0,0.8082-0.0748,2.0915-0.2215,3.8523h-43.586v0.7708c0.1467,5.5031,1.8333,9.9061,5.063,13.2077
		c3.2282,3.3023,7.4472,4.9531,12.6584,4.9531c4.0349,0,7.4651-1.008,10.2907-3.0269c2.8241-2.0174,4.7144-4.8236,5.6692-8.42
		h9.1354c-1.1015,5.7238-3.8523,10.4015-8.2553,14.0338c-4.4031,3.6323-9.7969,5.4484-16.18,5.4484
		c-5.5779,0-10.4569-1.1921-14.6384-3.5777c-4.1831-2.3834-7.4307-5.7598-9.7415-10.1261
		c-2.3108-4.3649-3.4677-9.3726-3.4677-15.0238C428.1574,136.5034,429.2754,131.4785,431.5143,127.148z M472.0742,136.5034
		c-0.44-4.769-2.2195-8.4754-5.3384-11.1169c-3.119-2.6415-7.0626-3.9623-11.8308-3.9623c-4.2579,0-7.9995,1.3948-11.2277,4.1831
		c-3.2297,2.7889-5.063,6.4212-5.5031,10.8961H472.0742z"/>
	<path class="st1" d="M515.0925,114.1596v8.8054h-4.5138c-5.3564,0-9.1907,1.7989-11.5015,5.3938
		c-2.3123,3.5956-3.4677,8.0346-3.4677,13.3177v28.6176h-9.0246v-56.1345h7.8138l1.2108,8.4754
		c1.6134-2.5675,3.7041-4.6223,6.2738-6.1638c2.5682-1.5408,6.1257-2.3115,10.6769-2.3115H515.0925z"/>
	<path class="st1" d="M568.2369,93.2473v77.0467h-7.8153l-1.2108-9.0254c-4.6964,6.4579-11.1169,9.6861-19.2615,9.6861
		c-5.2112,0-9.8508-1.1374-13.923-3.4123c-4.0723-2.2734-7.2646-5.5757-9.5754-9.9061c-2.3123-4.329-3.4677-9.4661-3.4677-15.4092
		c0-5.6497,1.1554-10.6387,3.4677-14.9692c2.3108-4.329,5.5195-7.7046,9.6307-10.1261c4.1082-2.4215,8.7313-3.6323,13.8677-3.6323
		c4.5497,0,8.4379,0.8254,11.6677,2.4762c3.2282,1.6515,5.759,3.9077,7.5938,6.7692V93.2473H568.2369z M550.4615,160.3333
		c2.8226-1.7234,5.0077-4.1449,6.5477-7.2646c1.5415-3.1182,2.3123-6.6592,2.3123-10.6215c0-4.0349-0.7708-7.65-2.3123-10.8415
		c-1.54-3.1923-3.7251-5.6684-6.5477-7.43c-2.8256-1.7608-6.0374-2.6415-9.6323-2.6415c-5.5764,0-10.0707,1.9261-13.483,5.7785
		c-3.4108,3.8523-5.1169,8.8248-5.1169,14.9146c0,6.0912,1.7062,11.0615,5.1169,14.9138c3.4123,3.8523,7.9066,5.7784,13.483,5.7784
		C544.4242,162.9195,547.6359,162.0582,550.4615,160.3333z"/>
	<path class="st1" d="M586.7645,167.3225c-4.2205-2.4215-7.504-5.7957-9.8508-10.1261c-2.3497-4.329-3.523-9.318-3.523-14.9692
		c0-5.6497,1.1733-10.6387,3.523-14.9692c2.3467-4.329,5.6303-7.7046,9.8508-10.1261c4.219-2.4215,9.0426-3.6323,14.4738-3.6323
		c5.4297,0,10.2534,1.2108,14.4738,3.6323c4.2189,2.4215,7.501,5.7972,9.8508,10.1261c2.3481,4.3305,3.523,9.3195,3.523,14.9692
		c0,5.6512-1.1749,10.6402-3.523,14.9692c-2.3497,4.3305-5.6318,7.7046-9.8508,10.1261c-4.2205,2.4215-9.0441,3.6323-14.4738,3.6323
		C595.8071,170.9548,590.9835,169.744,586.7645,167.3225z M610.9798,160.2779c2.8226-1.7608,5.0077-4.219,6.5477-7.3746
		c1.5416-3.1541,2.3123-6.7138,2.3123-10.6761s-0.7708-7.5205-2.3123-10.6769c-1.54-3.1541-3.725-5.6131-6.5477-7.3746
		c-2.8256-1.7608-6.0733-2.6415-9.7415-2.6415c-3.6697,0-6.9174,0.8808-9.7415,2.6415c-2.8256,1.7615-5.0077,4.2205-6.5492,7.3746
		c-1.54,3.1564-2.3108,6.7146-2.3108,10.6769s0.7708,7.522,2.3108,10.6761c1.5415,3.1556,3.7236,5.6138,6.5492,7.3746
		c2.8242,1.7608,6.0718,2.6415,9.7415,2.6415C604.9065,162.9195,608.1542,162.0387,610.9798,160.2779z"/>
	<path class="st1" d="M687.5104,114.1596v53.3829c0,16.95-9.2836,25.4253-27.8477,25.4253c-7.2646,0-13.1897-1.6508-17.7753-4.9531
		c-4.5872-3.3023-7.2466-7.9987-7.98-14.0884h9.2462c0.7318,3.5223,2.6041,6.2357,5.6123,8.1446
		c3.0082,1.9074,6.8605,2.8623,11.5584,2.8623c12.1061,0,18.16-5.9079,18.16-17.7207v-6.6046
		c-4.0364,6.8987-10.4554,10.3469-19.2615,10.3469c-5.2112,0-9.8507-1.1374-13.923-3.4123
		c-4.0723-2.2734-7.2646-5.5757-9.5754-9.9061c-2.3123-4.329-3.4677-9.4661-3.4677-15.4092c0-5.6497,1.1554-10.6387,3.4677-14.9692
		c2.3108-4.329,5.5195-7.7046,9.6307-10.1261c4.1082-2.4215,8.7313-3.6323,13.8677-3.6323c4.5497,0,8.438,0.8995,11.6677,2.6969
		c3.2282,1.7989,5.759,4.3477,7.5939,7.6492l1.2108-9.6861H687.5104z M669.735,160.3333c2.8226-1.7234,5.0077-4.1449,6.5477-7.2646
		c1.5415-3.1182,2.3123-6.6592,2.3123-10.6215c0-4.0349-0.7708-7.65-2.3123-10.8415c-1.54-3.1923-3.7251-5.6684-6.5477-7.43
		c-2.8256-1.7608-6.0374-2.6415-9.6322-2.6415c-5.5764,0-10.0708,1.9261-13.4831,5.7785
		c-3.4108,3.8523-5.1169,8.8248-5.1169,14.9146c0,6.0912,1.7062,11.0615,5.1169,14.9138c3.4123,3.8523,7.9067,5.7784,13.4831,5.7784
		C663.6976,162.9195,666.9094,162.0582,669.735,160.3333z"/>
	<g>
		<path class="st0" d="M746.1393,93.2473c5.063,0,9.538,0.9735,13.4277,2.9169c3.8882,1.9449,6.8799,4.6964,8.9707,8.2546
			c2.0908,3.5605,3.137,7.7241,3.137,12.493c0,4.7705-1.0641,8.9528-3.1923,12.5477c-2.1282,3.5956-5.1169,6.3666-8.9692,8.31
			c-3.8538,1.9449-8.3107,2.9169-13.3738,2.9169h-20.0322v29.6076h-9.5754V93.2473H746.1393z M726.1071,131.8811h19.1522
			c5.063,0,9.0964-1.3574,12.1061-4.0731c3.0082-2.7134,4.5138-6.3457,4.5138-10.8961c0-4.549-1.4861-8.1626-4.4584-10.8415
			c-2.9708-2.6782-6.9892-4.0177-12.0522-4.0177h-19.2615V131.8811z"/>
		<path class="st0" d="M807.9976,114.1596v8.8054h-4.5138c-5.3564,0-9.1907,1.7989-11.5015,5.3938
			c-2.3123,3.5956-3.4677,8.0346-3.4677,13.3177v28.6176h-9.0247v-56.1345h7.8138l1.2108,8.4754
			c1.6133-2.5675,3.7041-4.6223,6.2738-6.1638c2.5682-1.5408,6.1257-2.3115,10.6769-2.3115H807.9976z"/>
		<path class="st0" d="M823.3514,167.3225c-4.2205-2.4215-7.504-5.7957-9.8508-10.1261c-2.3497-4.329-3.523-9.318-3.523-14.9692
			c0-5.6497,1.1733-10.6387,3.523-14.9692c2.3467-4.329,5.6303-7.7046,9.8508-10.1261c4.219-2.4215,9.0426-3.6323,14.4738-3.6323
			c5.4297,0,10.2534,1.2108,14.4738,3.6323c4.2189,2.4215,7.501,5.7972,9.8507,10.1261c2.3482,4.3305,3.5231,9.3195,3.5231,14.9692
			c0,5.6512-1.1749,10.6402-3.5231,14.9692c-2.3497,4.3305-5.6318,7.7046-9.8507,10.1261
			c-4.2205,2.4215-9.0441,3.6323-14.4738,3.6323C832.394,170.9548,827.5704,169.744,823.3514,167.3225z M847.5667,160.2779
			c2.8226-1.7608,5.0076-4.219,6.5477-7.3746c1.5415-3.1541,2.3123-6.7138,2.3123-10.6761s-0.7708-7.5205-2.3123-10.6769
			c-1.54-3.1541-3.7251-5.6131-6.5477-7.3746c-2.8256-1.7608-6.0733-2.6415-9.7415-2.6415c-3.6697,0-6.9174,0.8808-9.7415,2.6415
			c-2.8256,1.7615-5.0077,4.2205-6.5492,7.3746c-1.54,3.1564-2.3108,6.7146-2.3108,10.6769s0.7708,7.522,2.3108,10.6761
			c1.5415,3.1556,3.7236,5.6138,6.5492,7.3746c2.8242,1.7608,6.0718,2.6415,9.7415,2.6415
			C841.4934,162.9195,844.7411,162.0387,847.5667,160.2779z"/>
		<path class="st0" d="M877.999,122.415h-10.1262v-8.2554h10.1262V98.4204h9.0246v15.7392h14.1984v8.2554h-14.1984v33.1299
			c0,2.3497,0.4579,4.0177,1.3769,5.0084c0.916,0.9908,2.5114,1.4854,4.7877,1.4854h9.7954v8.2553h-10.3461
			c-5.2831,0-9.0441-1.1726-11.2816-3.5223c-2.2389-2.3474-3.3569-6.0538-3.3569-11.1169V122.415z"/>
		<path class="st0" d="M918.2281,167.3225c-4.2205-2.4215-7.5041-5.7957-9.8508-10.1261c-2.3497-4.329-3.523-9.318-3.523-14.9692
			c0-5.6497,1.1733-10.6387,3.523-14.9692c2.3467-4.329,5.6303-7.7046,9.8508-10.1261c4.2189-2.4215,9.0425-3.6323,14.4738-3.6323
			c5.4297,0,10.2533,1.2108,14.4738,3.6323c4.2189,2.4215,7.501,5.7972,9.8507,10.1261c2.3482,4.3305,3.5231,9.3195,3.5231,14.9692
			c0,5.6512-1.1749,10.6402-3.5231,14.9692c-2.3497,4.3305-5.6318,7.7046-9.8507,10.1261
			c-4.2205,2.4215-9.0441,3.6323-14.4738,3.6323C927.2706,170.9548,922.447,169.744,918.2281,167.3225z M942.4434,160.2779
			c2.8226-1.7608,5.0077-4.219,6.5477-7.3746c1.5415-3.1541,2.3123-6.7138,2.3123-10.6761s-0.7708-7.5205-2.3123-10.6769
			c-1.54-3.1541-3.7251-5.6131-6.5477-7.3746c-2.8256-1.7608-6.0732-2.6415-9.7415-2.6415c-3.6697,0-6.9174,0.8808-9.7415,2.6415
			c-2.8256,1.7615-5.0077,4.2205-6.5492,7.3746c-1.54,3.1564-2.3108,6.7146-2.3108,10.6769s0.7708,7.522,2.3108,10.6761
			c1.5415,3.1556,3.7236,5.6138,6.5492,7.3746c2.8241,1.7608,6.0718,2.6415,9.7415,2.6415
			C936.3701,162.9195,939.6177,162.0387,942.4434,160.2779z"/>
		<path class="st0" d="M1011.6187,165.6164c-4.3312,3.5597-9.8343,5.3384-16.5107,5.3384c-5.4312,0-10.1995-1.2108-14.3077-3.6323
			c-4.1112-2.4215-7.3035-5.8151-9.5768-10.1815c-2.2749-4.3649-3.4123-9.3726-3.4123-15.0238
			c0-5.6497,1.1569-10.6387,3.4677-14.9692c2.3108-4.329,5.5585-7.6859,9.7415-10.0715c4.1815-2.3834,8.9872-3.5769,14.4184-3.5769
			c6.6031,0,12.0523,1.7608,16.3446,5.2831s6.9892,8.3653,8.0907,14.5292h-9.1368c-0.88-3.5949-2.7148-6.4564-5.5031-8.5854
			c-2.7897-2.1274-6.1631-3.1923-10.1262-3.1923c-5.3564,0-9.704,1.9089-13.043,5.7238c-3.3389,3.8164-5.0077,8.7694-5.0077,14.8592
			c0,6.1638,1.6688,11.1715,5.0077,15.0238c3.339,3.8523,7.6866,5.7784,13.043,5.7784c4.1082,0,7.5565-1.0626,10.3461-3.1915
			c2.7882-2.1274,4.5856-5.0631,5.3939-8.8054h9.0261C1018.6992,157.1597,1015.9468,162.0582,1011.6187,165.6164z"/>
		<path class="st0" d="M1039.4109,167.3225c-4.2205-2.4215-7.504-5.7957-9.8508-10.1261c-2.3496-4.329-3.5229-9.318-3.5229-14.9692
			c0-5.6497,1.1733-10.6387,3.5229-14.9692c2.3468-4.329,5.6304-7.7046,9.8508-10.1261c4.219-2.4215,9.0426-3.6323,14.4738-3.6323
			c5.4298,0,10.2534,1.2108,14.4739,3.6323c4.2189,2.4215,7.501,5.7972,9.8507,10.1261c2.3481,4.3305,3.5231,9.3195,3.5231,14.9692
			c0,5.6512-1.1749,10.6402-3.5231,14.9692c-2.3497,4.3305-5.6318,7.7046-9.8507,10.1261
			c-4.2205,2.4215-9.0441,3.6323-14.4739,3.6323C1048.4535,170.9548,1043.6299,169.744,1039.4109,167.3225z M1063.6261,160.2779
			c2.8226-1.7608,5.0077-4.219,6.5477-7.3746c1.5415-3.1541,2.3124-6.7138,2.3124-10.6761s-0.7709-7.5205-2.3124-10.6769
			c-1.54-3.1541-3.7251-5.6131-6.5477-7.3746c-2.8256-1.7608-6.0732-2.6415-9.7415-2.6415c-3.6697,0-6.9174,0.8808-9.7415,2.6415
			c-2.8257,1.7615-5.0077,4.2205-6.5492,7.3746c-1.54,3.1564-2.3108,6.7146-2.3108,10.6769s0.7708,7.522,2.3108,10.6761
			c1.5415,3.1556,3.7235,5.6138,6.5492,7.3746c2.8241,1.7608,6.0718,2.6415,9.7415,2.6415
			C1057.5529,162.9195,1060.8005,162.0387,1063.6261,160.2779z"/>
		<path class="st0" d="M1090.9753,93.2473H1100v77.0467h-9.0247V93.2473z"/>
	</g>
</g>
<g>
</g>
<g>
</g>
<g>
</g>
<g>
</g>
<g>
</g>
</svg>
